<?xml version="1.0" encoding="UTF-8" standalone="no"?>
<!DOCTYPE svg PUBLIC "-//W3C//DTD SVG 1.1//EN" "http://www.w3.org/Graphics/SVG/1.1/DTD/svg11.dtd">
<svg width="100%" height="100%" viewBox="0 0 1024 1024" version="1.1" xmlns="http://www.w3.org/2000/svg" xmlns:xlink="http://www.w3.org/1999/xlink" xml:space="preserve" xmlns:serif="http://www.serif.com/" style="fill-rule:evenodd;clip-rule:evenodd;stroke-linejoin:round;stroke-miterlimit:2;">
    <g id="empty_heart" transform="matrix(0.998971,0,0,1.00811,-4.96811,-28.1783)">
        <path d="M516.988,195.465C562.761,113.846 627.074,67.665 693.426,48.782C783.907,23.031 878.618,48.562 940.534,106.173C992.505,154.602 1021.58,226.127 1026.68,310.466C1032.4,404.972 1007.39,515.842 952.024,626.437C921.473,691.292 870.731,756.605 809.88,817.851C727.051,901.218 625.556,977.134 534.78,1036.15C523.966,1043.1 510.034,1043.1 499.22,1036.15C408.525,977.035 307.144,901.003 224.409,817.564C163.663,756.302 112.989,691.016 82.855,626.864C27.2,515.674 2.269,404.912 7.937,310.494C12.992,226.295 41.92,154.863 93.753,106.466C155.55,48.889 250.127,23.377 340.511,49.019C406.842,67.838 471.155,113.939 516.988,195.465ZM507.054,224.462C461.784,140.986 397.978,95.325 332.376,79.219C253.88,59.949 173.109,83.611 121.72,134.934C78.657,177.852 57.022,240.25 54.899,312.555C52.343,399.565 78.52,500.671 132.619,601.536C132.736,601.762 132.85,601.989 132.961,602.218C162.279,661.136 210.834,719.473 267.598,774.78C343.196,848.438 433.716,916.308 516.977,970.418C600.167,916.213 690.592,848.223 766.113,774.494C822.776,719.176 871.256,660.857 900.503,601.963C900.616,601.729 900.732,601.496 900.852,601.266C954.889,500.502 980.998,399.503 978.485,312.582C976.399,240.413 954.934,178.105 911.993,135.227C860.715,83.946 780.084,60.28 701.689,79.456C636.102,95.5 572.28,141.068 526.946,224.462C525.031,228.156 521.191,230.479 517,230.479C512.809,230.479 508.969,228.156 507.054,224.462Z"/>
    </g>
</svg>
