<?xml version="1.0" encoding="UTF-8" standalone="no"?>
<!DOCTYPE svg PUBLIC "-//W3C//DTD SVG 1.1//EN" "http://www.w3.org/Graphics/SVG/1.1/DTD/svg11.dtd">
<svg width="100%" height="100%" viewBox="0 0 424 583" version="1.1" xmlns="http://www.w3.org/2000/svg" xmlns:xlink="http://www.w3.org/1999/xlink" xml:space="preserve" xmlns:serif="http://www.serif.com/" style="fill-rule:evenodd;clip-rule:evenodd;stroke-linejoin:round;stroke-miterlimit:2;">
    <g transform="matrix(1.01829,0,0,0.732323,-230.171,-164.04)">
        <path d="M392,281.01L392,958.99C392,990.455 373.629,1016 351,1016L269,1016C246.371,1016 228,990.455 228,958.99L228,281.01C228,249.545 246.371,224 269,224L351,224C373.629,224 392,249.545 392,281.01Z"/>
    </g>
    <g transform="matrix(1.01829,0,0,0.732323,23.8293,-165.04)">
        <path d="M392,281.01L392,958.99C392,990.455 373.629,1016 351,1016L269,1016C246.371,1016 228,990.455 228,958.99L228,281.01C228,249.545 246.371,224 269,224L351,224C373.629,224 392,249.545 392,281.01Z"/>
    </g>
</svg>
