<?xml version="1.0" encoding="UTF-8" standalone="no"?>
<!-- Created with Inkscape (http://www.inkscape.org/) -->

<svg
   width="86.216942mm"
   height="32.352016mm"
   viewBox="0 0 86.216942 32.352016"
   version="1.1"
   id="svg1"
   inkscape:version="1.1.2 (0a00cf5339, 2022-02-04)"
   sodipodi:docname="eagle1.svg"
   inkscape:export-filename="idle4.svg"
   inkscape:export-xdpi="96"
   inkscape:export-ydpi="96"
   xmlns:inkscape="http://www.inkscape.org/namespaces/inkscape"
   xmlns:sodipodi="http://sodipodi.sourceforge.net/DTD/sodipodi-0.dtd"
   xmlns="http://www.w3.org/2000/svg"
   xmlns:svg="http://www.w3.org/2000/svg"
   xmlns:rdf="http://www.w3.org/1999/02/22-rdf-syntax-ns#"
   xmlns:cc="http://creativecommons.org/ns#"
   xmlns:dc="http://purl.org/dc/elements/1.1/">
  <title
     id="title15">goose</title>
  <sodipodi:namedview
     id="namedview1"
     pagecolor="#ffffff"
     bordercolor="#111111"
     borderopacity="1"
     inkscape:showpageshadow="0"
     inkscape:pageopacity="0"
     inkscape:pagecheckerboard="1"
     inkscape:deskcolor="#d1d1d1"
     inkscape:document-units="mm"
     inkscape:zoom="5.925764"
     inkscape:cx="65.645544"
     inkscape:cy="82.774137"
     inkscape:window-width="1850"
     inkscape:window-height="1016"
     inkscape:window-x="0"
     inkscape:window-y="0"
     inkscape:window-maximized="1"
     inkscape:current-layer="g18388"
     inkscape:export-bgcolor="#ffffff00"
     inkscape:pageshadow="0"
     showgrid="false" />
  <defs
     id="defs1">
    <linearGradient
       id="linearGradient15995"
       inkscape:swatch="solid">
      <stop
         style="stop-color:#300000;stop-opacity:1;"
         offset="0"
         id="stop15993" />
    </linearGradient>
    <inkscape:path-effect
       effect="bspline"
       id="path-effect10522"
       is_visible="true"
       lpeversion="1"
       weight="33.333333"
       steps="2"
       helper_size="0"
       apply_no_weight="true"
       apply_with_weight="true"
       only_selected="false" />
    <inkscape:path-effect
       effect="bspline"
       id="path-effect10518"
       is_visible="true"
       lpeversion="1"
       weight="33.333333"
       steps="2"
       helper_size="0"
       apply_no_weight="true"
       apply_with_weight="true"
       only_selected="false" />
    <inkscape:path-effect
       effect="bspline"
       id="path-effect10514"
       is_visible="true"
       lpeversion="1"
       weight="33.333333"
       steps="2"
       helper_size="0"
       apply_no_weight="true"
       apply_with_weight="true"
       only_selected="false" />
    <inkscape:path-effect
       effect="bspline"
       id="path-effect10510"
       is_visible="true"
       lpeversion="1"
       weight="33.333333"
       steps="2"
       helper_size="0"
       apply_no_weight="true"
       apply_with_weight="true"
       only_selected="false" />
    <inkscape:path-effect
       effect="bspline"
       id="path-effect10506"
       is_visible="true"
       lpeversion="1"
       weight="33.333333"
       steps="2"
       helper_size="0"
       apply_no_weight="true"
       apply_with_weight="true"
       only_selected="false" />
    <inkscape:path-effect
       effect="bspline"
       id="path-effect10502"
       is_visible="true"
       lpeversion="1"
       weight="33.333333"
       steps="2"
       helper_size="0"
       apply_no_weight="true"
       apply_with_weight="true"
       only_selected="false" />
    <inkscape:path-effect
       effect="bspline"
       id="path-effect10498"
       is_visible="true"
       lpeversion="1"
       weight="33.333333"
       steps="2"
       helper_size="0"
       apply_no_weight="true"
       apply_with_weight="true"
       only_selected="false" />
    <inkscape:path-effect
       effect="bspline"
       id="path-effect10494"
       is_visible="true"
       lpeversion="1"
       weight="33.333333"
       steps="2"
       helper_size="0"
       apply_no_weight="true"
       apply_with_weight="true"
       only_selected="false" />
    <inkscape:path-effect
       effect="bspline"
       id="path-effect10490"
       is_visible="true"
       lpeversion="1"
       weight="33.333333"
       steps="2"
       helper_size="0"
       apply_no_weight="true"
       apply_with_weight="true"
       only_selected="false" />
    <inkscape:path-effect
       effect="bspline"
       id="path-effect10486"
       is_visible="true"
       lpeversion="1"
       weight="33.333333"
       steps="2"
       helper_size="0"
       apply_no_weight="true"
       apply_with_weight="true"
       only_selected="false" />
    <inkscape:path-effect
       effect="bspline"
       id="path-effect10482"
       is_visible="true"
       lpeversion="1"
       weight="33.333333"
       steps="2"
       helper_size="0"
       apply_no_weight="true"
       apply_with_weight="true"
       only_selected="false" />
    <inkscape:path-effect
       effect="bspline"
       id="path-effect10132"
       is_visible="true"
       lpeversion="1"
       weight="33.333333"
       steps="2"
       helper_size="0"
       apply_no_weight="true"
       apply_with_weight="true"
       only_selected="false" />
    <inkscape:path-effect
       effect="bspline"
       id="path-effect9799"
       is_visible="true"
       lpeversion="1"
       weight="33.333333"
       steps="2"
       helper_size="0"
       apply_no_weight="true"
       apply_with_weight="true"
       only_selected="false" />
    <inkscape:path-effect
       effect="bspline"
       id="path-effect9583"
       is_visible="true"
       lpeversion="1"
       weight="33.333333"
       steps="2"
       helper_size="0"
       apply_no_weight="true"
       apply_with_weight="true"
       only_selected="false" />
    <inkscape:path-effect
       effect="bspline"
       id="path-effect143052"
       is_visible="true"
       lpeversion="1"
       weight="33.333333"
       steps="2"
       helper_size="0"
       apply_no_weight="true"
       apply_with_weight="true"
       only_selected="false" />
    <inkscape:path-effect
       effect="bspline"
       id="path-effect142718"
       is_visible="true"
       lpeversion="1"
       weight="33.333333"
       steps="2"
       helper_size="0"
       apply_no_weight="true"
       apply_with_weight="true"
       only_selected="false" />
    <inkscape:path-effect
       effect="bspline"
       id="path-effect141843"
       is_visible="true"
       lpeversion="1"
       weight="33.333333"
       steps="2"
       helper_size="0"
       apply_no_weight="true"
       apply_with_weight="true"
       only_selected="false" />
    <inkscape:path-effect
       effect="bspline"
       id="path-effect139529"
       is_visible="true"
       lpeversion="1"
       weight="33.333333"
       steps="2"
       helper_size="0"
       apply_no_weight="true"
       apply_with_weight="true"
       only_selected="false" />
    <inkscape:path-effect
       effect="bspline"
       id="path-effect132003"
       is_visible="true"
       lpeversion="1"
       weight="33.333333"
       steps="2"
       helper_size="0"
       apply_no_weight="true"
       apply_with_weight="true"
       only_selected="false" />
    <inkscape:path-effect
       effect="bspline"
       id="path-effect130646"
       is_visible="true"
       lpeversion="1"
       weight="33.333333"
       steps="2"
       helper_size="0"
       apply_no_weight="true"
       apply_with_weight="true"
       only_selected="false" />
    <marker
       style="overflow:visible"
       id="Arrow1Lstart"
       refX="0"
       refY="0"
       orient="auto"
       inkscape:stockid="Arrow1Lstart"
       inkscape:isstock="true">
      <path
         transform="matrix(0.8,0,0,0.8,10,0)"
         style="fill:context-stroke;fill-rule:evenodd;stroke:context-stroke;stroke-width:1pt"
         d="M 0,0 5,-5 -12.5,0 5,5 Z"
         id="path115793" />
    </marker>
    <inkscape:path-effect
       effect="bspline"
       id="path-effect130646-2"
       is_visible="true"
       lpeversion="1"
       weight="33.333333"
       steps="2"
       helper_size="0"
       apply_no_weight="true"
       apply_with_weight="true"
       only_selected="false" />
    <inkscape:path-effect
       effect="bspline"
       id="path-effect132003-7"
       is_visible="true"
       lpeversion="1"
       weight="33.333333"
       steps="2"
       helper_size="0"
       apply_no_weight="true"
       apply_with_weight="true"
       only_selected="false" />
    <inkscape:path-effect
       effect="bspline"
       id="path-effect130646-6"
       is_visible="true"
       lpeversion="1"
       weight="33.333333"
       steps="2"
       helper_size="0"
       apply_no_weight="true"
       apply_with_weight="true"
       only_selected="false" />
    <inkscape:path-effect
       effect="bspline"
       id="path-effect132003-0"
       is_visible="true"
       lpeversion="1"
       weight="33.333333"
       steps="2"
       helper_size="0"
       apply_no_weight="true"
       apply_with_weight="true"
       only_selected="false" />
    <inkscape:path-effect
       effect="bspline"
       id="path-effect139529-9"
       is_visible="true"
       lpeversion="1"
       weight="33.333333"
       steps="2"
       helper_size="0"
       apply_no_weight="true"
       apply_with_weight="true"
       only_selected="false" />
    <inkscape:path-effect
       effect="bspline"
       id="path-effect139529-0"
       is_visible="true"
       lpeversion="1"
       weight="33.333333"
       steps="2"
       helper_size="0"
       apply_no_weight="true"
       apply_with_weight="true"
       only_selected="false" />
  </defs>
  <g
     inkscape:label="Calque 1"
     inkscape:groupmode="layer"
     id="layer1"
     transform="translate(-20.822955,-79.996899)">
    <path
       style="opacity:1;fill:#483737;fill-opacity:0.649177;stroke:#000000;stroke-width:0.0738189;stroke-miterlimit:4;stroke-dasharray:none;stroke-opacity:0"
       d=""
       id="path45708"
       transform="scale(0.26458333)" />
    <g
       id="g18388">
      <path
         style="fill:none;stroke:#000000;stroke-width:0.532559px;stroke-linecap:butt;stroke-linejoin:miter;stroke-opacity:1"
         d="m 29.432972,88.185926 v 0"
         id="path14032"
         inkscape:export-filename="/home/guillaume/Documents/Perso/fallducks/art/sprites/character/eagle1.svg"
         inkscape:export-xdpi="96"
         inkscape:export-ydpi="96" />
      <path
         style="fill:#e3dbdb;stroke:#000000;stroke-width:0.532559px;stroke-linecap:butt;stroke-linejoin:miter;stroke-opacity:1"
         d="m 29.432972,88.185926 c 0,0 -2.672114,1.15377 0.561922,4.538272 2.741783,2.86932 7.033483,5.479973 7.033483,5.479973 l 4.739935,2.079549 c 8.591312,2.5301 13.890356,-4.089857 19.372134,-5.652814 4.567955,-1.302398 5.07601,-1.322405 8.875689,-3.374982 8.359483,-4.515787 18.468485,-4.650109 6.919423,-6.480985 -11.549061,-1.830876 -47.502586,3.410987 -47.502586,3.410987"
         id="path23702"
         sodipodi:nodetypes="csccsszc"
         inkscape:export-filename="/home/guillaume/Documents/Perso/fallducks/art/sprites/character/eagle1.svg"
         inkscape:export-xdpi="96"
         inkscape:export-ydpi="96" />
      <ellipse
         style="opacity:1;fill:#ffffff;fill-opacity:0.649177;stroke:#000000;stroke-width:0.805129;stroke-miterlimit:4;stroke-dasharray:none;stroke-opacity:1"
         id="path15331"
         cx="34.747185"
         cy="91.428452"
         rx="2.5650392"
         ry="1.8527766"
         inkscape:export-filename="/home/guillaume/Documents/Perso/fallducks/art/sprites/character/eagle1.svg"
         inkscape:export-xdpi="96"
         inkscape:export-ydpi="96" />
      <rect
         style="opacity:1;fill:#000000;fill-opacity:1;stroke:#000000;stroke-width:1.023;stroke-miterlimit:4;stroke-dasharray:none;stroke-opacity:1"
         id="rect16395"
         width="8.5206995"
         height="2.0543118"
         x="-3.1814165"
         y="92.820824"
         transform="matrix(0.96638089,-0.25711471,0.35131195,0.93625846,0,0)"
         inkscape:export-filename="/home/guillaume/Documents/Perso/fallducks/art/sprites/character/eagle1.svg"
         inkscape:export-xdpi="96"
         inkscape:export-ydpi="96" />
      <path
         style="fill:#ffcc00;stroke:#000000;stroke-width:0.532559px;stroke-linecap:butt;stroke-linejoin:miter;stroke-opacity:1"
         d="m 29.432972,88.185926 c -8.734759,2.285855 -8.937979,4.565183 -7.926495,7.071602 1.59772,3.959087 10.453058,4.676041 5.611388,0.515713 -2.887437,-2.481103 6.265325,0.949673 9.910516,2.43093 -4.104856,-3.999118 -11.482246,-7.851058 -7.595409,-10.018245 z"
         id="path14034"
         sodipodi:nodetypes="csscc"
         inkscape:export-filename="/home/guillaume/Documents/Perso/fallducks/art/sprites/character/eagle1.svg"
         inkscape:export-xdpi="96"
         inkscape:export-ydpi="96" />
      <path
         style="fill:#ffcc00;stroke:#000000;stroke-width:0.532559px;stroke-linecap:butt;stroke-linejoin:miter;stroke-opacity:1"
         d="m 37.028383,98.204171 -8.61361,1.569061 -1.548864,-0.557646 1.510659,2.724024 c 0,0 8.611408,-1.86222 8.986904,-1.91542 0.953869,-0.135135 1.90774,-0.270271 2.861611,-0.405406 l -3.196706,-1.414613 z"
         id="path29120"
         sodipodi:nodetypes="ccccsccc"
         inkscape:export-filename="/home/guillaume/Documents/Perso/fallducks/art/sprites/character/eagle1.svg"
         inkscape:export-xdpi="96"
         inkscape:export-ydpi="96"
         inkscape:transform-center-x="4.7665449"
         inkscape:transform-center-y="1.3940254" />
      <path
         style="fill:#808000;stroke:#000000;stroke-width:0.532559px;stroke-linecap:butt;stroke-linejoin:miter;stroke-opacity:1"
         d="m 68.919777,96.296739 -6.524982,5.200791 2.51392,2.36422 15.788271,-12.775869"
         id="path41646"
         inkscape:export-filename="/home/guillaume/Documents/Perso/fallducks/art/sprites/character/eagle1.svg"
         inkscape:export-xdpi="96"
         inkscape:export-ydpi="96" />
      <path
         style="fill:#ffff00;stroke:#000000;stroke-width:0.532559px;stroke-linecap:butt;stroke-linejoin:miter;stroke-opacity:1"
         d="m 63.609232,102.70019 -2.547822,2.42687 -1.851967,-2.31682 6.385353,-5.402503 15.10219,-6.321856 -15.788271,12.775869 -2.51392,-2.36422 2.51392,2.36422"
         id="path41681"
         inkscape:export-filename="/home/guillaume/Documents/Perso/fallducks/art/sprites/character/eagle1.svg"
         inkscape:export-xdpi="96"
         inkscape:export-ydpi="96" />
      <path
         style="fill:none;stroke:#000000;stroke-width:0.532559px;stroke-linecap:butt;stroke-linejoin:miter;stroke-opacity:1"
         d="m 62.394795,101.49753 6.524982,-5.200791 v 0"
         id="path41716"
         inkscape:export-filename="/home/guillaume/Documents/Perso/fallducks/art/sprites/character/eagle1.svg"
         inkscape:export-xdpi="96"
         inkscape:export-ydpi="96" />
      <path
         style="fill:#ffff00;stroke:#000000;stroke-width:0.532559px;stroke-linecap:butt;stroke-linejoin:miter;stroke-opacity:1"
         d="m 59.209443,102.81024 1.851967,2.31682 -0.279259,4.03979 -2.279764,1.71378 -1.311552,-1.69739 2.115141,-1.5124 -1.20467,-2.08639 -1.88702,2.03353 -1.899949,-1.99303 1.404925,-1.0139 -1.398315,-1.29948 -1.067627,1.02626 -1.387393,-1.72326 2.187536,-1.45922 z"
         id="path41718"
         inkscape:export-filename="/home/guillaume/Documents/Perso/fallducks/art/sprites/character/eagle1.svg"
         inkscape:export-xdpi="96"
         inkscape:export-ydpi="96" />
      <path
         style="fill:#ffff00;stroke:#000000;stroke-width:0.532559px;stroke-linecap:butt;stroke-linejoin:miter;stroke-opacity:1"
         d="m 62.394795,101.49753 2.51392,2.36422 -0.503647,4.90344 -1.75831,1.6569 -1.400396,-1.23193 1.563264,-1.41377 -1.141823,-1.16997 -1.470067,1.43319 -1.258864,-1.48105 1.427653,-1.32356 -0.849878,-1.17933 -1.583557,1.25667 -1.279224,-1.151 1.790306,-1.5634 3.950623,-1.10041 v 0"
         id="path41753"
         inkscape:export-filename="/home/guillaume/Documents/Perso/fallducks/art/sprites/character/eagle1.svg"
         inkscape:export-xdpi="96"
         inkscape:export-ydpi="96" />
      <path
         style="fill:#ffffff;stroke:#000000;stroke-width:0.532559px;stroke-linecap:butt;stroke-linejoin:miter;stroke-opacity:1"
         d="m 51.865927,102.61457 -1.66953,2.56764 3.056923,-0.84438 z"
         id="path41901"
         inkscape:export-filename="/home/guillaume/Documents/Perso/fallducks/art/sprites/character/eagle1.svg"
         inkscape:export-xdpi="96"
         inkscape:export-ydpi="96" />
      <path
         style="fill:none;stroke:#000000;stroke-width:0.532559px;stroke-linecap:butt;stroke-linejoin:miter;stroke-opacity:1"
         d="m 54.314337,105.62495 1.899949,1.99303 -2.239828,0.8444 0.339879,-2.83743"
         id="path41969"
         inkscape:export-filename="/home/guillaume/Documents/Perso/fallducks/art/sprites/character/eagle1.svg"
         inkscape:export-xdpi="96"
         inkscape:export-ydpi="96" />
      <path
         style="fill:none;stroke:#000000;stroke-width:0.532559px;stroke-linecap:butt;stroke-linejoin:miter;stroke-opacity:1"
         d="m 57.190835,109.18324 1.311552,1.69739 -2.326886,0.89323 z"
         id="path41971"
         inkscape:export-filename="/home/guillaume/Documents/Perso/fallducks/art/sprites/character/eagle1.svg"
         inkscape:export-xdpi="96"
         inkscape:export-ydpi="96" />
      <path
         style="fill:none;stroke:#000000;stroke-width:0.532559px;stroke-linecap:butt;stroke-linejoin:miter;stroke-opacity:1"
         d="m 56.653866,104.16134 1.279224,1.151"
         id="path41973"
         inkscape:export-filename="/home/guillaume/Documents/Perso/fallducks/art/sprites/character/eagle1.svg"
         inkscape:export-xdpi="96"
         inkscape:export-ydpi="96" />
      <path
         style="fill:#ffffff;stroke:#000000;stroke-width:0.532559px;stroke-linecap:butt;stroke-linejoin:miter;stroke-opacity:1"
         d="m 62.646758,110.42209 -2.630561,1.39688 0.765954,-2.65212 z"
         id="path41975"
         inkscape:export-filename="/home/guillaume/Documents/Perso/fallducks/art/sprites/character/eagle1.svg"
         inkscape:export-xdpi="96"
         inkscape:export-ydpi="96" />
      <path
         style="fill:#ffffff;stroke:#000000;stroke-width:0.532559px;stroke-linecap:butt;stroke-linejoin:miter;stroke-opacity:1"
         d="m 60.197736,108.03961 -1.258864,-1.48105 -0.797555,1.69431 2.056419,-0.21326"
         id="path42010"
         inkscape:export-filename="/home/guillaume/Documents/Perso/fallducks/art/sprites/character/eagle1.svg"
         inkscape:export-xdpi="96"
         inkscape:export-ydpi="96" />
      <path
         style="fill:#ffffff;stroke:#000000;stroke-width:0.532559px;stroke-linecap:butt;stroke-linejoin:miter;stroke-opacity:1"
         d="m 56.653866,104.16134 1.279224,1.151 -1.830204,0.89858 0.55098,-2.04958"
         id="path42078"
         inkscape:export-filename="/home/guillaume/Documents/Perso/fallducks/art/sprites/character/eagle1.svg"
         inkscape:export-xdpi="96"
         inkscape:export-ydpi="96" />
      <ellipse
         style="opacity:1;fill:#000000;fill-opacity:1;stroke:#000000;stroke-width:0.599608;stroke-miterlimit:4;stroke-dasharray:none;stroke-opacity:1"
         id="path16841"
         cx="-21.515558"
         cy="97.952484"
         rx="1.0314494"
         ry="0.57180488"
         transform="matrix(0.89645645,-0.44313185,0.53921241,0.8421698,0,0)"
         inkscape:export-filename="/home/guillaume/Documents/Perso/fallducks/art/sprites/character/eagle1.svg"
         inkscape:export-xdpi="96"
         inkscape:export-ydpi="96" />
      <path
         style="fill:none;stroke:#000000;stroke-width:0.532559px;stroke-linecap:butt;stroke-linejoin:miter;stroke-opacity:1"
         d="m 76.972817,96.145435 c 0,0 10.335937,0.212493 9.429659,-0.656 -0.906277,-0.868493 -5.790333,-1.036503 -5.790333,-1.036503 z"
         id="path45187"
         inkscape:export-filename="/home/guillaume/Documents/Perso/fallducks/art/sprites/character/eagle1.svg"
         inkscape:export-xdpi="96"
         inkscape:export-ydpi="96" />
      <path
         style="fill:none;stroke:#000000;stroke-width:0.532559px;stroke-linecap:butt;stroke-linejoin:miter;stroke-opacity:1"
         d="m 80.612143,94.452932 c 0,0 9.788429,0.864025 6.644399,-0.252106 -3.144035,-1.116151 -2.880741,-0.975757 -2.880741,-0.975757 z"
         id="path45191"
         inkscape:export-filename="/home/guillaume/Documents/Perso/fallducks/art/sprites/character/eagle1.svg"
         inkscape:export-xdpi="96"
         inkscape:export-ydpi="96" />
      <path
         style="fill:none;stroke:#000000;stroke-width:0.532559px;stroke-linecap:butt;stroke-linejoin:miter;stroke-opacity:1"
         d="m 84.375801,93.225069 3.652526,1.021669 c 0,0 2.837473,0.299851 0.983069,-1.113292 -1.854401,-1.413143 -4.635595,0.09158 -4.635595,0.09158 z"
         id="path45193"
         inkscape:export-filename="/home/guillaume/Documents/Perso/fallducks/art/sprites/character/eagle1.svg"
         inkscape:export-xdpi="96"
         inkscape:export-ydpi="96" />
      <path
         style="fill:none;stroke:#000000;stroke-width:0.532559px;stroke-linecap:butt;stroke-linejoin:miter;stroke-opacity:1"
         d="m 86.969279,92.355369 5.129369,0.302285 c 0,0 1.551494,-0.767529 -0.06978,-1.369162 -1.621277,-0.601653 -1.621277,-0.601653 -1.621277,-0.601653 z"
         id="path45209"
         inkscape:export-filename="/home/guillaume/Documents/Perso/fallducks/art/sprites/character/eagle1.svg"
         inkscape:export-xdpi="96"
         inkscape:export-ydpi="96" />
      <path
         style="fill:none;stroke:#000000;stroke-width:0.532559px;stroke-linecap:butt;stroke-linejoin:miter;stroke-opacity:1"
         d="m 89.543767,93.987406 c 0,0 3.797481,1.028875 2.651178,-0.153176 -1.146306,-1.18195 -1.146306,-1.18195 -1.146306,-1.18195 l -2.549902,-0.274267 z"
         id="path45213"
         inkscape:export-filename="/home/guillaume/Documents/Perso/fallducks/art/sprites/character/eagle1.svg"
         inkscape:export-xdpi="96"
         inkscape:export-ydpi="96" />
      <path
         style="opacity:1;fill:#483737;fill-opacity:0.649177;stroke:#000000;stroke-width:0.039313;stroke-miterlimit:4;stroke-dasharray:none;stroke-opacity:0"
         d="m 78.648037,95.730946 c 0.243135,-0.08734 0.932565,-0.335566 1.532062,-0.551604 l 1.089995,-0.3928 0.223201,0.01773 c 0.12276,0.0097 0.504041,0.03685 0.847291,0.06027 1.293838,0.08819 2.469884,0.272798 3.172479,0.497991 0.286426,0.09181 0.461878,0.169791 0.43696,0.194214 -0.049,0.04804 -0.849752,0.153979 -1.542128,0.204061 -1.110397,0.08033 -3.077027,0.132 -4.953741,0.130162 l -1.248186,-0.0011 z"
         id="path45318"
         inkscape:export-filename="/home/guillaume/Documents/Perso/fallducks/art/sprites/character/eagle1.svg"
         inkscape:export-xdpi="96"
         inkscape:export-ydpi="96" />
      <path
         style="opacity:1;fill:#483737;fill-opacity:0.649177;stroke:#000000;stroke-width:0.039313;stroke-miterlimit:4;stroke-dasharray:none;stroke-opacity:0"
         d="m 78.371239,95.848556 c 0.01938,-0.0077 0.680036,-0.24682 1.468112,-0.531351 l 1.432857,-0.517317 0.729218,0.05283 c 1.932957,0.140015 3.02464,0.323737 3.844749,0.647028 0.04021,0.01582 0.06671,0.03909 0.05893,0.05171 -0.01432,0.02317 -0.380987,0.08303 -0.808105,0.131872 -1.063937,0.121669 -2.858972,0.184229 -5.20078,0.181262 -0.858129,-0.0011 -1.544369,-0.0083 -1.524984,-0.01603 z"
         id="path45357"
         inkscape:export-filename="/home/guillaume/Documents/Perso/fallducks/art/sprites/character/eagle1.svg"
         inkscape:export-xdpi="96"
         inkscape:export-ydpi="96" />
      <path
         style="opacity:1;fill:#483737;fill-opacity:0.649177;stroke:#000000;stroke-width:0.039313;stroke-miterlimit:4;stroke-dasharray:none;stroke-opacity:0"
         d="m 85.253021,94.47091 c -0.840975,-0.03414 -1.938969,-0.0961 -2.249334,-0.126904 -0.207379,-0.02061 -0.388758,-0.03781 -0.403057,-0.03829 -0.02141,-5.32e-4 0.52055,-0.211149 1.774281,-0.688914 l 0.162036,-0.06175 0.748097,0.255751 c 1.277914,0.436885 1.824501,0.635109 1.811091,0.656811 -0.01166,0.01885 -1.398581,0.02136 -1.843114,0.0032 z"
         id="path45396"
         inkscape:export-filename="/home/guillaume/Documents/Perso/fallducks/art/sprites/character/eagle1.svg"
         inkscape:export-xdpi="96"
         inkscape:export-ydpi="96" />
      <path
         style="opacity:1;fill:#483737;fill-opacity:0.649177;stroke:#000000;stroke-width:0.039313;stroke-miterlimit:4;stroke-dasharray:none;stroke-opacity:0"
         d="m 84.654936,94.433929 c -0.595258,-0.02977 -1.691164,-0.102241 -1.859054,-0.122899 l -0.1428,-0.01757 0.93968,-0.360618 0.939674,-0.360617 0.295283,0.09784 c 0.722332,0.239332 2.177977,0.755153 2.203732,0.780913 0.01922,0.01923 -1.931503,0.0053 -2.376515,-0.01704 z"
         id="path45435"
         inkscape:export-filename="/home/guillaume/Documents/Perso/fallducks/art/sprites/character/eagle1.svg"
         inkscape:export-xdpi="96"
         inkscape:export-ydpi="96" />
      <path
         style="opacity:1;fill:#483737;fill-opacity:0.649177;stroke:#000000;stroke-width:0.039313;stroke-miterlimit:4;stroke-dasharray:none;stroke-opacity:0"
         d="m 88.152456,93.978915 c -0.132261,-0.0245 -2.730257,-0.75208 -2.730294,-0.764617 -2.6e-5,-0.0071 0.184239,-0.08494 0.40948,-0.172869 0.476326,-0.185943 0.692902,-0.22589 1.228652,-0.226614 0.385589,-5.22e-4 0.6307,0.03254 0.953148,0.128496 0.197404,0.05875 0.621838,0.255303 0.71142,0.329452 0.02162,0.01789 0.130419,0.172197 0.24175,0.342883 0.175351,0.268831 0.196637,0.313571 0.159166,0.334543 -0.04543,0.0254 -0.861255,0.04948 -0.973322,0.02871 z"
         id="path45474"
         inkscape:export-filename="/home/guillaume/Documents/Perso/fallducks/art/sprites/character/eagle1.svg"
         inkscape:export-xdpi="96"
         inkscape:export-ydpi="96" />
      <path
         style="opacity:1;fill:#483737;fill-opacity:0.649177;stroke:#000000;stroke-width:0.039313;stroke-miterlimit:4;stroke-dasharray:none;stroke-opacity:0"
         d="m 91.376939,94.082317 c -0.269006,-0.03621 -1.194557,-0.217295 -1.384708,-0.270892 -0.06355,-0.01789 -0.0976,-0.04292 -0.09776,-0.07177 -5.33e-4,-0.132208 -0.278673,-0.484448 -0.557052,-0.705961 -0.09045,-0.07197 -0.184857,-0.162005 -0.209802,-0.200078 l -0.04537,-0.06922 0.373723,0.01821 c 0.205547,0.01001 0.617833,0.04457 0.916194,0.07684 l 0.542476,0.05863 0.56789,0.58368 c 0.312335,0.321022 0.568475,0.592451 0.569189,0.603177 0.0021,0.03052 -0.373825,0.01789 -0.674796,-0.02263 z"
         id="path45513"
         inkscape:export-filename="/home/guillaume/Documents/Perso/fallducks/art/sprites/character/eagle1.svg"
         inkscape:export-xdpi="96"
         inkscape:export-ydpi="96" />
      <path
         style="opacity:1;fill:#483737;fill-opacity:0.649177;stroke:#000000;stroke-width:0.039313;stroke-miterlimit:4;stroke-dasharray:none;stroke-opacity:0"
         d="m 90.960877,92.314251 c -0.550635,-0.03382 -1.381459,-0.102624 -1.846277,-0.152855 -0.464818,-0.05022 -0.85683,-0.09167 -0.871129,-0.09208 -0.04564,-0.0016 0.05331,-0.04873 0.617913,-0.295906 0.303745,-0.132975 0.799909,-0.355606 1.10259,-0.494737 l 0.550331,-0.25296 0.749865,0.278598 c 0.776999,0.288679 0.951513,0.36377 1.094063,0.470745 0.137853,0.103444 0.151881,0.153611 0.07427,0.265598 -0.08875,0.128065 -0.381515,0.348539 -0.449267,0.33833 -0.01166,-0.0016 -0.471731,-0.03089 -1.02236,-0.06473 z"
         id="path45552"
         inkscape:export-filename="/home/guillaume/Documents/Perso/fallducks/art/sprites/character/eagle1.svg"
         inkscape:export-xdpi="96"
         inkscape:export-ydpi="96" />
      <path
         style="opacity:1;fill:#483737;fill-opacity:0.649177;stroke:#000000;stroke-width:0.039313;stroke-miterlimit:4;stroke-dasharray:none;stroke-opacity:0"
         d="m 90.934872,92.301832 c -0.713054,-0.05001 -1.495549,-0.118782 -2.233794,-0.196344 l -0.426522,-0.04479 0.179489,-0.08618 c 0.399382,-0.191764 1.927865,-0.873435 2.012755,-0.89765 0.08293,-0.02365 0.153388,-0.0021 0.79312,0.239833 0.386159,0.146187 0.77645,0.300869 0.86731,0.343745 0.17428,0.08223 0.341872,0.211805 0.341872,0.26432 0,0.05877 -0.128022,0.204855 -0.278598,0.317906 -0.14949,0.112237 -0.151812,0.112951 -0.358498,0.110235 -0.114415,-0.0016 -0.518127,-0.0245 -0.897134,-0.05107 z"
         id="path45591"
         inkscape:export-filename="/home/guillaume/Documents/Perso/fallducks/art/sprites/character/eagle1.svg"
         inkscape:export-xdpi="96"
         inkscape:export-ydpi="96" />
      <path
         style="opacity:1;fill:#483737;fill-opacity:0.649177;stroke:#000000;stroke-width:0.039313;stroke-miterlimit:4;stroke-dasharray:none;stroke-opacity:0"
         d="m 91.25992,92.312126 c -0.987946,-0.06585 -2.89943,-0.242287 -2.89943,-0.267632 0,-0.03281 2.087447,-0.961739 2.162304,-0.962229 0.08928,-5.32e-4 1.400786,0.491436 1.653245,0.620225 0.14368,0.0733 0.267058,0.181555 0.267058,0.23432 0,0.04447 -0.218339,0.271377 -0.337334,0.350568 -0.05219,0.03478 -0.125508,0.04191 -0.390057,0.03808 -0.179175,-0.0027 -0.384274,-0.0086 -0.455786,-0.01337 z"
         id="path45630"
         inkscape:export-filename="/home/guillaume/Documents/Perso/fallducks/art/sprites/character/eagle1.svg"
         inkscape:export-xdpi="96"
         inkscape:export-ydpi="96" />
      <path
         style="opacity:1;fill:#483737;fill-opacity:0.649177;stroke:#000000;stroke-width:0.039313;stroke-miterlimit:4;stroke-dasharray:none;stroke-opacity:0"
         d="m 91.025887,92.286553 c -0.05721,-0.0048 -0.39656,-0.03275 -0.754115,-0.06198 -0.750084,-0.06128 -1.85899,-0.171495 -1.87372,-0.186226 -0.01763,-0.01763 1.915414,-0.88121 2.094492,-0.935728 0.06177,-0.0188 0.546864,0.146715 1.237418,0.422213 0.422219,0.168443 0.552595,0.235956 0.646304,0.334645 l 0.07619,0.08024 -0.182221,0.182221 -0.18222,0.182226 -0.479059,-0.0043 c -0.263478,-0.0027 -0.52586,-0.0084 -0.583067,-0.01326 z"
         id="path45669"
         inkscape:export-filename="/home/guillaume/Documents/Perso/fallducks/art/sprites/character/eagle1.svg"
         inkscape:export-xdpi="96"
         inkscape:export-ydpi="96" />
      <path
         style="opacity:1;fill:#483737;fill-opacity:0.649177;stroke:#000000;stroke-width:0.039313;stroke-miterlimit:4;stroke-dasharray:none;stroke-opacity:0"
         d="m 87.671385,93.836898 c -1.058079,-0.29097 -2.159545,-0.605063 -2.177721,-0.620991 -0.02764,-0.02423 0.569061,-0.253669 0.821446,-0.315835 0.431411,-0.106256 1.119696,-0.09344 1.58944,0.02961 0.213029,0.0558 0.714626,0.278624 0.803057,0.356745 0.06714,0.05932 0.406993,0.573636 0.406993,0.615932 0,0.04697 -0.181544,0.06629 -0.608221,0.06466 -0.357427,-0.0016 -0.379038,-0.0048 -0.834994,-0.130115 z"
         id="path45784"
         inkscape:export-filename="/home/guillaume/Documents/Perso/fallducks/art/sprites/character/eagle1.svg"
         inkscape:export-xdpi="96"
         inkscape:export-ydpi="96" />
      <path
         style="opacity:1;fill:#483737;fill-opacity:0.649177;stroke:#000000;stroke-width:0.039313;stroke-miterlimit:4;stroke-dasharray:none;stroke-opacity:0"
         d="m 91.298925,94.055545 c -0.439485,-0.06721 -1.285631,-0.24502 -1.342503,-0.282112 -0.03041,-0.01986 -0.0635,-0.06892 -0.0735,-0.109074 -0.0335,-0.134509 -0.256326,-0.396544 -0.597798,-0.702984 -0.09923,-0.08905 -0.175159,-0.167165 -0.168731,-0.173593 0.01747,-0.01747 0.724521,0.03179 1.284576,0.08951 l 0.493246,0.05081 0.152387,0.149596 c 0.08381,0.08228 0.340055,0.3456 0.569439,0.585161 l 0.417053,0.435564 -0.243566,-0.0027 c -0.133955,-0.0016 -0.354728,-0.01954 -0.490599,-0.04031 z"
         id="path45823"
         inkscape:export-filename="/home/guillaume/Documents/Perso/fallducks/art/sprites/character/eagle1.svg"
         inkscape:export-xdpi="96"
         inkscape:export-ydpi="96" />
      <path
         style="fill:#483737;stroke:#000000;stroke-width:0.532559px;stroke-linecap:butt;stroke-linejoin:miter;stroke-opacity:1"
         d="m 75.19643,84.823557 c 2.638075,0.261 12.924335,-1.340535 15.367645,-1.684524 4.389395,-0.617971 4.267184,-0.06739 5.423475,0.402023 7.23377,4.919077 -8.363237,9.309648 -5.579964,7.145783"
         id="path45928"
         sodipodi:nodetypes="cscc"
         inkscape:export-filename="/home/guillaume/Documents/Perso/fallducks/art/sprites/character/eagle1.svg"
         inkscape:export-xdpi="96"
         inkscape:export-ydpi="96" />
      <path
         style="opacity:1;fill:#483737;fill-opacity:0.649177;stroke:#000000;stroke-width:0.00982823;stroke-miterlimit:4;stroke-dasharray:none;stroke-opacity:0"
         d="m 81.54097,85.463965 c -0.261764,-0.09855 -0.755388,-0.236377 -1.233211,-0.344353 -0.07579,-0.01715 -0.136692,-0.03222 -0.13534,-0.03361 0.0032,-0.0032 3.538981,0.200365 3.559378,0.205089 0.0089,0.0021 -0.10223,0.01481 -0.247038,0.02828 -0.559007,0.05208 -1.211493,0.116636 -1.605524,0.158873 -0.116087,0.01246 -0.218477,0.02231 -0.227536,0.02189 -0.0091,-3.99e-4 -0.05888,-0.01672 -0.110729,-0.03621 z"
         id="path46099"
         inkscape:export-filename="/home/guillaume/Documents/Perso/fallducks/art/sprites/character/eagle1.svg"
         inkscape:export-xdpi="96"
         inkscape:export-ydpi="96" />
      <path
         style="opacity:1;fill:#483737;fill-opacity:0.649177;stroke:#000000;stroke-width:0.00982823;stroke-miterlimit:4;stroke-dasharray:none;stroke-opacity:0"
         d="m 81.54097,85.463965 c -0.261764,-0.09855 -0.755388,-0.236377 -1.233211,-0.344353 -0.07579,-0.01715 -0.136692,-0.03222 -0.13534,-0.03361 0.0032,-0.0032 3.538981,0.200365 3.559378,0.205089 0.0089,0.0021 -0.10223,0.01481 -0.247038,0.02828 -0.559007,0.05208 -1.211493,0.116636 -1.605524,0.158873 -0.116087,0.01246 -0.218477,0.02231 -0.227536,0.02189 -0.0091,-3.99e-4 -0.05888,-0.01672 -0.110729,-0.03621 z"
         id="path46138"
         inkscape:export-filename="/home/guillaume/Documents/Perso/fallducks/art/sprites/character/eagle1.svg"
         inkscape:export-xdpi="96"
         inkscape:export-ydpi="96" />
      <path
         style="opacity:1;fill:#483737;fill-opacity:0.649177;stroke:#000000;stroke-width:0.00982823;stroke-miterlimit:4;stroke-dasharray:none;stroke-opacity:0"
         d="m 81.440204,85.426734 c -0.107263,-0.03653 -0.275477,-0.08933 -0.373804,-0.117302 -0.178109,-0.05065 -0.61125,-0.160966 -0.768611,-0.195737 -0.04553,-0.01007 -0.08173,-0.01933 -0.08047,-0.02056 0.0032,-0.0032 0.860648,0.04495 2.406061,0.134887 0.368281,0.02146 0.747122,0.0434 0.841875,0.04884 0.16471,0.0094 0.229182,0.01571 0.208034,0.02024 -0.0054,0.0011 -0.195519,0.01981 -0.422565,0.04149 -0.487952,0.04655 -0.967884,0.09417 -1.309494,0.129988 -0.135627,0.01422 -0.259959,0.02556 -0.276292,0.02524 -0.01933,-3.94e-4 -0.09762,-0.02375 -0.224735,-0.06705 z"
         id="path46140"
         inkscape:export-filename="/home/guillaume/Documents/Perso/fallducks/art/sprites/character/eagle1.svg"
         inkscape:export-xdpi="96"
         inkscape:export-ydpi="96" />
      <path
         style="opacity:1;fill:#483737;fill-opacity:0.649177;stroke:#000000;stroke-width:0.00982823;stroke-miterlimit:4;stroke-dasharray:none;stroke-opacity:0"
         d="m 81.628735,85.484559 c -0.02152,-0.0077 -0.384827,-0.123692 -0.455072,-0.145346 -0.128363,-0.03957 -0.350333,-0.09871 -0.62409,-0.16626 -0.135872,-0.03355 -0.258739,-0.06407 -0.273044,-0.06786 -0.02892,-0.0077 0.06768,-0.0055 0.260039,0.0058 0.05721,0.0032 0.159602,0.0092 0.227536,0.01289 0.160417,0.0088 0.482078,0.02711 0.975143,0.05539 0.21811,0.01252 0.474084,0.02716 0.568837,0.03254 0.776328,0.04431 1.295622,0.07556 1.322612,0.0796 0.02514,0.0037 -0.03808,0.01166 -0.289297,0.03616 -0.176799,0.01726 -0.377042,0.03685 -0.444975,0.04356 -0.06794,0.0068 -0.215671,0.0213 -0.328302,0.03238 -0.223222,0.02194 -0.673932,0.06718 -0.77547,0.07782 -0.06093,0.0064 -0.15023,0.0082 -0.163917,0.0032 z"
         id="path46179"
         inkscape:export-filename="/home/guillaume/Documents/Perso/fallducks/art/sprites/character/eagle1.svg"
         inkscape:export-xdpi="96"
         inkscape:export-ydpi="96" />
      <path
         style="opacity:1;fill:#483737;fill-opacity:0.649177;stroke:#000000;stroke-width:0.00982823;stroke-miterlimit:4;stroke-dasharray:none;stroke-opacity:0"
         d="M 81.609228,85.478104 C 81.132086,85.322048 81.01839,85.289365 80.481309,85.153893 l -0.191774,-0.04836 0.06249,-5.32e-4 c 0.06639,-5.33e-4 0.08288,2.71e-4 1.660265,0.09067 0.90549,0.05187 1.334147,0.07698 1.501722,0.0879 0.06535,0.0043 0.109217,0.0096 0.105926,0.01289 -0.0021,0.0021 -0.27365,0.02982 -0.830782,0.08452 -0.09117,0.0089 -0.326672,0.03249 -0.52333,0.0523 -0.592558,0.05971 -0.608109,0.06077 -0.656598,0.04489 z"
         id="path46218"
         inkscape:export-filename="/home/guillaume/Documents/Perso/fallducks/art/sprites/character/eagle1.svg"
         inkscape:export-xdpi="96"
         inkscape:export-ydpi="96" />
      <path
         style="fill:#916f6f;stroke:#000000;stroke-width:0.602706px;stroke-linecap:butt;stroke-linejoin:miter;stroke-opacity:1"
         d="m 39.870562,90.539701 c 2.9591,3.575801 3.945146,9.28598 11.067006,9.188479 9.797702,2.46247 16.685956,-0.608336 22.010539,-2.38119 C 129.47631,78.525641 63.7709,86.046814 58.780728,91.354029 48.174254,89.52711 53.252601,89.18958 50.966044,86.845095 Z"
         id="path34719"
         sodipodi:nodetypes="ccsccc"
         inkscape:export-filename="/home/guillaume/Documents/Perso/fallducks/art/sprites/character/eagle1.svg"
         inkscape:export-xdpi="96"
         inkscape:export-ydpi="96" />
      <path
         style="fill:#483737;stroke:#000000;stroke-width:0.532559px;stroke-linecap:butt;stroke-linejoin:miter;stroke-opacity:1"
         d="m 92.158731,82.323078 c 3.828817,1.217974 12.092669,-1.993899 12.092669,-1.993899 l 1.07222,1.927818 -9.336072,1.284055 z"
         id="path48361"
         inkscape:export-filename="/home/guillaume/Documents/Perso/fallducks/art/sprites/character/eagle1.svg"
         inkscape:export-xdpi="96"
         inkscape:export-ydpi="96" />
      <path
         style="fill:#483737;stroke:#000000;stroke-width:0.532559px;stroke-linecap:butt;stroke-linejoin:miter;stroke-opacity:1"
         d="m 105.32362,82.256993 0.53911,1.57864 -8.259286,1.099271 -1.615896,-1.393852 9.336072,-1.284059"
         id="path48462"
         inkscape:export-filename="/home/guillaume/Documents/Perso/fallducks/art/sprites/character/eagle1.svg"
         inkscape:export-xdpi="96"
         inkscape:export-ydpi="96" />
      <path
         style="fill:#483737;stroke:#000000;stroke-width:0.532559px;stroke-linecap:butt;stroke-linejoin:miter;stroke-opacity:1"
         d="m 105.86273,83.835633 0.43617,1.51127 -8.311896,1.066973 c 0,0 -0.38356,-1.478976 -0.38356,-1.478976 z"
         id="path48497"
         inkscape:export-filename="/home/guillaume/Documents/Perso/fallducks/art/sprites/character/eagle1.svg"
         inkscape:export-xdpi="96"
         inkscape:export-ydpi="96" />
      <path
         style="fill:#483737;stroke:#000000;stroke-width:0.532559px;stroke-linecap:butt;stroke-linejoin:miter;stroke-opacity:1"
         d="m 106.2989,85.346899 0.4187,2.062033 -9.467642,0.515206 0.737046,-1.510262 8.311896,-1.066977"
         id="path48499"
         inkscape:export-filename="/home/guillaume/Documents/Perso/fallducks/art/sprites/character/eagle1.svg"
         inkscape:export-xdpi="96"
         inkscape:export-ydpi="96" />
    </g>
  </g>
  <metadata
     id="metadata15">
    <rdf:RDF>
      <cc:Work
         rdf:about="">
        <dc:title>goose</dc:title>
      </cc:Work>
    </rdf:RDF>
  </metadata>
</svg>
