<?xml version="1.0" encoding="UTF-8" standalone="no"?>
<!-- Created with Inkscape (http://www.inkscape.org/) -->

<svg
   width="48.343868mm"
   height="59.877182mm"
   viewBox="0 0 48.343868 59.877182"
   version="1.1"
   id="svg1"
   inkscape:version="1.3.2 (091e20e, 2023-11-25, custom)"
   sodipodi:docname="dessin.svg"
   inkscape:export-filename="idle1.pdf"
   inkscape:export-xdpi="96"
   inkscape:export-ydpi="96"
   xmlns:inkscape="http://www.inkscape.org/namespaces/inkscape"
   xmlns:sodipodi="http://sodipodi.sourceforge.net/DTD/sodipodi-0.dtd"
   xmlns="http://www.w3.org/2000/svg"
   xmlns:svg="http://www.w3.org/2000/svg"
   xmlns:rdf="http://www.w3.org/1999/02/22-rdf-syntax-ns#"
   xmlns:cc="http://creativecommons.org/ns#"
   xmlns:dc="http://purl.org/dc/elements/1.1/">
  <title
     id="title15">goose</title>
  <sodipodi:namedview
     id="namedview1"
     pagecolor="#ffffff"
     bordercolor="#111111"
     borderopacity="1"
     inkscape:showpageshadow="0"
     inkscape:pageopacity="0"
     inkscape:pagecheckerboard="1"
     inkscape:deskcolor="#d1d1d1"
     inkscape:document-units="mm"
     inkscape:zoom="1.7212682"
     inkscape:cx="266.08287"
     inkscape:cy="161.7993"
     inkscape:window-width="1920"
     inkscape:window-height="1009"
     inkscape:window-x="-8"
     inkscape:window-y="-8"
     inkscape:window-maximized="1"
     inkscape:current-layer="layer1"
     inkscape:export-bgcolor="#ffffff00" />
  <defs
     id="defs1" />
  <g
     inkscape:label="Calque 1"
     inkscape:groupmode="layer"
     id="layer1"
     transform="translate(-0.02432947,-1.312056)">
    <path
       style="fill:#ffffff;fill-opacity:1;stroke:#000000;stroke-width:1;stroke-dasharray:none;stroke-opacity:1"
       d="m 33.233231,8.3386072 1.2,-3 -10.6,-3.5 -10.599999,3.5 1.2,3"
       id="path14"
       sodipodi:nodetypes="ccccc" />
    <path
       style="fill:#000000;fill-opacity:0;stroke:#000000;stroke-width:0.532837;stroke-dasharray:none;stroke-opacity:1"
       d="m 29.224556,49.565174 0.06404,7.488162 c -4.080717,5.14759 -6.908335,5.167739 -10.518702,0.0098 l 0.03505,-7.503881"
       id="path2"
       sodipodi:nodetypes="cccc" />
    <path
       style="fill:#ffffff;fill-opacity:1;stroke:#000000;stroke-width:0.880343;stroke-dasharray:none;stroke-opacity:1"
       d="M 35.848273,39.098056 C 36.022348,38.993004 49.391227,6.2787782 23.804868,6.2787782 c -25.5863541,0 -12.090818,32.6308658 -12.043403,32.8189848"
       id="path13"
       sodipodi:nodetypes="csc" />
    <path
       style="fill:#fff52b;fill-opacity:1;stroke:#000000;stroke-width:0.0862947;stroke-dasharray:none;stroke-opacity:1"
       d="m 24.504886,60.55698 c 1.169432,-0.254442 2.614552,-1.358294 4.096008,-3.128722 l 0.401213,-0.479475 -0.03056,-3.219326 c -0.01681,-1.770629 -0.03306,-3.222824 -0.03613,-3.2271 -0.0031,-0.0043 -0.140077,0.04961 -0.304475,0.119739 -2.75031,1.173284 -6.152722,1.263528 -9.020768,0.239262 l -0.506809,-0.180997 -0.02544,3.134213 -0.02544,3.134209 0.258267,0.360386 c 0.404195,0.56401 1.14416,1.429988 1.572474,1.840259 1.255873,1.202963 2.442445,1.664124 3.62166,1.407552 z"
       id="path10" />
    <ellipse
       style="fill:#000000;fill-opacity:1;stroke:#000000;stroke-width:0.499999;stroke-dasharray:none;stroke-opacity:1"
       id="path11"
       cx="-27.527502"
       cy="46.907482"
       rx="1.0274447"
       ry="1.5982472"
       transform="scale(-1,1)" />
    <ellipse
       style="fill:#000000;fill-opacity:1;stroke:#000000;stroke-width:0.499999;stroke-dasharray:none;stroke-opacity:1"
       id="path11-0"
       cx="-20.027502"
       cy="46.907482"
       rx="1.0274447"
       ry="1.5982472"
       transform="scale(-1,1)" />
    <path
       style="fill:#ffffff;fill-opacity:1;stroke:#000000;stroke-width:0.0862947;stroke-dasharray:none;stroke-opacity:1"
       d="m 25.128171,50.466695 c 3.923893,-0.49897 7.22567,-2.832222 8.959859,-6.331621 1.740752,-3.512641 1.574307,-7.622045 -0.444619,-10.977341 -0.841258,-1.398105 -2.136722,-2.755169 -3.489232,-3.655149 -3.024961,-2.01285 -6.769783,-2.469001 -10.227606,-1.24581 -0.67381,0.238357 -1.855749,0.83253 -2.458108,1.235716 -1.50849,1.009701 -2.67908,2.258548 -3.606286,3.84738 -0.805819,1.380824 -1.323057,2.999017 -1.488907,4.658082 -0.07488,0.749092 -0.03007,2.116948 0.09341,2.851052 0.321286,1.910115 1.057096,3.629021 2.20769,5.157329 0.415189,0.551485 1.334467,1.50392 1.875724,1.943378 1.558333,1.265246 3.426444,2.102312 5.465104,2.448813 0.735692,0.125042 2.382189,0.161099 3.11297,0.06817 z M 27.0987,48.675694 c -0.3101,-0.141739 -0.591157,-0.508575 -0.752169,-0.981734 -0.118725,-0.348891 -0.141001,-1.026826 -0.04626,-1.407768 0.140799,-0.566117 0.513123,-1.061349 0.891932,-1.186367 0.269141,-0.08882 0.668276,-0.041 0.891677,0.106839 0.698118,0.461992 0.95484,1.83433 0.516765,2.762432 -0.322846,0.68398 -0.928278,0.968807 -1.501948,0.706598 z m -7.544593,-0.02566 c -0.514119,-0.239824 -0.873646,-1.091708 -0.814546,-1.93003 0.06976,-0.989574 0.596866,-1.667448 1.295696,-1.666315 0.786239,0.0013 1.361788,0.924696 1.278106,2.050616 -0.03198,0.430264 -0.122384,0.730863 -0.315901,1.050378 -0.345886,0.571092 -0.884625,0.755984 -1.443355,0.495351 z"
       id="path12" />
    <circle
       style="fill:#000000;fill-opacity:0;stroke:#000000;stroke-width:0.995701;stroke-dasharray:none;stroke-opacity:1"
       id="path1"
       cx="-23.804953"
       cy="39.059231"
       r="12.00215"
       transform="scale(-1,1)" />
    <path
       style="fill:#ffffff;fill-opacity:1;stroke:#000000;stroke-width:0.848686;stroke-dasharray:none;stroke-opacity:1"
       d="m 35.747516,39.139334 c 0,0 10.781297,-7.640365 12.053433,-15.165194 0.499173,-2.95266 -0.377183,-6.95659 -2.136556,-9.387727 -1.941597,-2.682944 -5.557579,-5.072426 -7.625886,-3.435681 -5.716689,4.523873 -2.290995,27.988603 -2.290995,27.988603 z"
       id="path15"
       sodipodi:nodetypes="csaac" />
    <path
       style="fill:#ffffff;fill-opacity:1;stroke:#000000;stroke-width:0.848686;stroke-dasharray:none;stroke-opacity:1"
       d="m 11.592729,39.226745 c 0,0 -10.2866768,-8.294324 -11.08966576,-15.883566 -0.315084,-2.977935 0.80791196,-6.919804 2.71467896,-9.237142 2.104259,-2.55736 5.861478,-4.7179734 7.8242908,-2.956101 5.425105,4.869718 0.5507,28.07681 0.5507,28.07681 z"
       id="path15-2"
       sodipodi:nodetypes="csaac" />
  </g>
  <metadata
     id="metadata15">
    <rdf:RDF>
      <cc:Work
         rdf:about="">
        <dc:title>goose</dc:title>
      </cc:Work>
    </rdf:RDF>
  </metadata>
</svg>
